{
  "accessors": [
    {
      "bufferView": 2,
      "componentType": 5126,
      "count": 593,
      "max": [
        1.0000002384185791,
        2.5,
        1.0000003576278687
      ],
      "min": [
        -0.99999982118606567,
        -2.5,
        -1
      ],
      "type": "VEC3"
    },
    {
      "bufferView": 2,
      "byteOffset": 7116,
      "componentType": 5126,
      "count": 593,
      "max": [
        1,
        1,
        1
      ],
      "min": [
        -1,
        -1,
        -1
      ],
      "type": "VEC3"
    },
    {
      "bufferView": 1,
      "componentType": 5126,
      "count": 593,
      "max": [
        1.0000002384185791,
        1
      ],
      "min": [
        0,
        0.5
      ],
      "type": "VEC2"
    },
    {
      "bufferView": 0,
      "componentType": 5125,
      "count": 2880,
      "max": [
        592
      ],
      "min": [
        0
      ],
      "type": "SCALAR"
    },
    {
      "bufferView": 2,
      "byteOffset": 14232,
      "componentType": 5126,
      "count": 1119,
      "max": [
        2.9807853698730469,
        4,
        0.98078536987304688
      ],
      "min": [
        -2.9807853698730469,
        -0.99999982118606567,
        -0.98078525066375732
      ],
      "type": "VEC3"
    },
    {
      "bufferView": 2,
      "byteOffset": 27660,
      "componentType": 5126,
      "count": 1119,
      "max": [
        0.99607306718826294,
        1,
        0.99607306718826294
      ],
      "min": [
        -0.99607306718826294,
        -1,
        -0.99607306718826294
      ],
      "type": "VEC3"
    },
    {
      "bufferView": 1,
      "byteOffset": 4744,
      "componentType": 5126,
      "count": 1119,
      "max": [
        1.0000002384185791,
        1
      ],
      "min": [
        0,
        0.5625
      ],
      "type": "VEC2"
    },
    {
      "bufferView": 0,
      "byteOffset": 11520,
      "componentType": 5125,
      "count": 5376,
      "max": [
        1118
      ],
      "min": [
        0
      ],
      "type": "SCALAR"
    },
    {
      "bufferView": 2,
      "byteOffset": 41088,
      "componentType": 5126,
      "count": 1119,
      "max": [
        8.3467540740966797,
        -0.17606425285339355,
        0.98078519105911255
      ],
      "min": [
        -8.3467540740966797,
        -2.6223969459533691,
        -0.98078542947769165
      ],
      "type": "VEC3"
    },
    {
      "bufferView": 2,
      "byteOffset": 54516,
      "componentType": 5126,
      "count": 1119,
      "max": [
        0.99823492765426636,
        0.99174702167510986,
        0.99607402086257935
      ],
      "min": [
        -0.99823492765426636,
        -0.9997401237487793,
        -0.99607402086257935
      ],
      "type": "VEC3"
    },
    {
      "bufferView": 1,
      "byteOffset": 13696,
      "componentType": 5126,
      "count": 1119,
      "max": [
        1.0000002384185791,
        1
      ],
      "min": [
        0,
        0.5625
      ],
      "type": "VEC2"
    },
    {
      "bufferView": 0,
      "byteOffset": 33024,
      "componentType": 5125,
      "count": 5376,
      "max": [
        1118
      ],
      "min": [
        0
      ],
      "type": "SCALAR"
    },
    {
      "bufferView": 2,
      "byteOffset": 67944,
      "componentType": 5126,
      "count": 136,
      "max": [
        0.8050919771194458,
        -0.15426337718963623,
        0.44125857949256897
      ],
      "min": [
        -0.8050919771194458,
        -0.60000002384185791,
        -0.60000002384185791
      ],
      "type": "VEC3"
    },
    {
      "bufferView": 2,
      "byteOffset": 69576,
      "componentType": 5126,
      "count": 136,
      "max": [
        0.66532790660858154,
        1,
        0.026797236874699593
      ],
      "min": [
        -0.66532784700393677,
        -0.99022823572158813,
        -0.011118928901851177
      ],
      "type": "VEC3"
    },
    {
      "bufferView": 1,
      "byteOffset": 22648,
      "componentType": 5126,
      "count": 136,
      "max": [
        1,
        1
      ],
      "min": [
        0,
        0
      ],
      "type": "VEC2"
    },
    {
      "bufferView": 0,
      "byteOffset": 54528,
      "componentType": 5125,
      "count": 264,
      "max": [
        135
      ],
      "min": [
        0
      ],
      "type": "SCALAR"
    },
    {
      "bufferView": 2,
      "byteOffset": 71208,
      "componentType": 5126,
      "count": 880,
      "max": [
        0.82396042346954346,
        -0.14926338195800781,
        0.46520835161209106
      ],
      "min": [
        -0.82396042346954346,
        -0.60000002384185791,
        -0.63026928901672363
      ],
      "type": "VEC3"
    },
    {
      "bufferView": 2,
      "byteOffset": 81768,
      "componentType": 5126,
      "count": 880,
      "max": [
        1,
        1,
        0.99947243928909302
      ],
      "min": [
        -1,
        -1,
        -0.99947243928909302
      ],
      "type": "VEC3"
    },
    {
      "bufferView": 1,
      "byteOffset": 23736,
      "componentType": 5126,
      "count": 880,
      "max": [
        1,
        1
      ],
      "min": [
        0,
        0
      ],
      "type": "VEC2"
    },
    {
      "bufferView": 0,
      "byteOffset": 55584,
      "componentType": 5125,
      "count": 1548,
      "max": [
        879
      ],
      "min": [
        0
      ],
      "type": "SCALAR"
    },
    {
      "bufferView": 2,
      "byteOffset": 92328,
      "componentType": 5126,
      "count": 461,
      "max": [
        1.0000002384185791,
        0.83146959543228149,
        1.0000003576278687
      ],
      "min": [
        -0.99999982118606567,
        -1,
        -1
      ],
      "type": "VEC3"
    },
    {
      "bufferView": 2,
      "byteOffset": 97860,
      "componentType": 5126,
      "count": 461,
      "max": [
        1,
        0.82865989208221436,
        1
      ],
      "min": [
        -1,
        -1,
        -1
      ],
      "type": "VEC3"
    },
    {
      "bufferView": 1,
      "byteOffset": 30776,
      "componentType": 5126,
      "count": 461,
      "max": [
        1.0000002384185791,
        0.81250011920928955
      ],
      "min": [
        0,
        0
      ],
      "type": "VEC2"
    },
    {
      "bufferView": 0,
      "byteOffset": 61776,
      "componentType": 5125,
      "count": 2400,
      "max": [
        460
      ],
      "min": [
        0
      ],
      "type": "SCALAR"
    },
    {
      "bufferView": 2,
      "byteOffset": 103392,
      "componentType": 5126,
      "count": 131,
      "max": [
        0.55557048320770264,
        1,
        0.55557066202163696
      ],
      "min": [
        -0.55557018518447876,
        0.83146959543228149,
        -0.55557024478912354
      ],
      "type": "VEC3"
    },
    {
      "bufferView": 2,
      "byteOffset": 104964,
      "componentType": 5126,
      "count": 131,
      "max": [
        0.55977481603622437,
        1,
        0.55977481603622437
      ],
      "min": [
        -0.55977481603622437,
        0.82864487171173096,
        -0.55977481603622437
      ],
      "type": "VEC3"
    },
    {
      "bufferView": 1,
      "byteOffset": 34464,
      "componentType": 5126,
      "count": 131,
      "max": [
        1.0000002384185791,
        1
      ],
      "min": [
        5.9604644775390625e-08,
        0.81249988079071045
      ],
      "type": "VEC2"
    },
    {
      "bufferView": 0,
      "byteOffset": 71376,
      "componentType": 5125,
      "count": 480,
      "max": [
        130
      ],
      "min": [
        0
      ],
      "type": "SCALAR"
    },
    {
      "bufferView": 2,
      "byteOffset": 106536,
      "componentType": 5126,
      "count": 308,
      "max": [
        0.85219407081604004,
        4.3857578901906891e-08,
        0.35711902379989624
      ],
      "min": [
        -0.85219407081604004,
        -0.2349606454372406,
        -0.64384287595748901
      ],
      "type": "VEC3"
    },
    {
      "bufferView": 2,
      "byteOffset": 110232,
      "componentType": 5126,
      "count": 308,
      "max": [
        0.99174904823303223,
        0.9753347635269165,
        0.97743815183639526
      ],
      "min": [
        -0.99174904823303223,
        -0.98269069194793701,
        -0.9731486439704895
      ],
      "type": "VEC3"
    },
    {
      "bufferView": 1,
      "byteOffset": 35512,
      "componentType": 5126,
      "count": 308,
      "max": [
        1,
        1
      ],
      "min": [
        0,
        0
      ],
      "type": "VEC2"
    },
    {
      "bufferView": 0,
      "byteOffset": 73296,
      "componentType": 5125,
      "count": 648,
      "max": [
        307
      ],
      "min": [
        0
      ],
      "type": "SCALAR"
    },
    {
      "bufferView": 2,
      "byteOffset": 113928,
      "componentType": 5126,
      "count": 1010,
      "max": [
        1.8433822393417358,
        2.5990846157073975,
        0.28382393717765808
      ],
      "min": [
        -1.8433822393417358,
        -1.2828648090362549,
        -2.3855876922607422
      ],
      "type": "VEC3"
    },
    {
      "bufferView": 2,
      "byteOffset": 126048,
      "componentType": 5126,
      "count": 1010,
      "max": [
        0.80009007453918457,
        0.99923920631408691,
        0.98991882801055908
      ],
      "min": [
        -0.80009007453918457,
        -0.98960959911346436,
        -0.99923741817474365
      ],
      "type": "VEC3"
    },
    {
      "bufferView": 1,
      "byteOffset": 37976,
      "componentType": 5126,
      "count": 1010,
      "max": [
        0.99000000953674316,
        0.49000000953674316
      ],
      "min": [
        0.01000000536441803,
        0.01000000536441803
      ],
      "type": "VEC2"
    },
    {
      "bufferView": 0,
      "byteOffset": 75888,
      "componentType": 5125,
      "count": 1908,
      "max": [
        1009
      ],
      "min": [
        0
      ],
      "type": "SCALAR"
    },
    {
      "bufferView": 2,
      "byteOffset": 138168,
      "componentType": 5126,
      "count": 1636,
      "max": [
        1.4115171432495117,
        2.502025842666626,
        0.34636491537094116
      ],
      "min": [
        -1.4115171432495117,
        -0.29953521490097046,
        -1.4311881065368652
      ],
      "type": "VEC3"
    },
    {
      "bufferView": 2,
      "byteOffset": 157800,
      "componentType": 5126,
      "count": 1636,
      "max": [
        0.82385051250457764,
        0.99923920631408691,
        0.99887841939926147
      ],
      "min": [
        -0.82385051250457764,
        -0.98960959911346436,
        -0.99923741817474365
      ],
      "type": "VEC3"
    },
    {
      "bufferView": 1,
      "byteOffset": 46056,
      "componentType": 5126,
      "count": 1636,
      "max": [
        0.44276687502861023,
        0.44274675846099854
      ],
      "min": [
        0.057225674390792847,
        0.057227067649364471
      ],
      "type": "VEC2"
    },
    {
      "bufferView": 0,
      "byteOffset": 83520,
      "componentType": 5125,
      "count": 4608,
      "max": [
        1635
      ],
      "min": [
        0
      ],
      "type": "SCALAR"
    }
  ],
  "asset": {
    "extras": {
      "author": "Platrium (https://sketchfab.com/Platrium)",
      "license": "CC-BY-4.0 (http://creativecommons.org/licenses/by/4.0/)",
      "source": "https://sketchfab.com/3d-models/3december-day-17-animal-plankton-6873541a529d4716b997a84daf99b461",
      "title": "3December Day 17: Animal - Plankton"
    },
    "generator": "Sketchfab-9.90.0",
    "version": "2.0"
  },
  "bufferViews": [
    {
      "buffer": 0,
      "byteLength": 101952,
      "byteOffset": 0,
      "name": "floatBufferViews",
      "target": 34963
    },
    {
      "buffer": 0,
      "byteLength": 59144,
      "byteOffset": 101952,
      "byteStride": 8,
      "name": "floatBufferViews",
      "target": 34962
    },
    {
      "buffer": 0,
      "byteLength": 177432,
      "byteOffset": 161096,
      "byteStride": 12,
      "name": "floatBufferViews",
      "target": 34962
    }
  ],
  "buffers": [
    {
      "byteLength": 338528,
      "uri": "scene.bin"
    }
  ],
  "materials": [
    {
      "doubleSided": true,
      "emissiveFactor": [
        0,
        0,
        0
      ],
      "name": "Plankton",
      "pbrMetallicRoughness": {
        "baseColorFactor": [
          0.15592700000000001,
          0.36130699999999999,
          0.30054399999999998,
          1
        ],
        "metallicFactor": 0,
        "roughnessFactor": 0.59999999999999998
      }
    },
    {
      "doubleSided": true,
      "emissiveFactor": [
        0,
        0,
        0
      ],
      "name": "Teeth",
      "pbrMetallicRoughness": {
        "baseColorFactor": [
          0.80000000000000004,
          0.80000000000000004,
          0.80000000000000004,
          1
        ],
        "metallicFactor": 0,
        "roughnessFactor": 0.5
      }
    },
    {
      "doubleSided": true,
      "emissiveFactor": [
        0,
        0,
        0
      ],
      "name": "Outline",
      "pbrMetallicRoughness": {
        "baseColorFactor": [
          0.0144438,
          0.0144438,
          0.0144438,
          1
        ],
        "metallicFactor": 0,
        "roughnessFactor": 1
      }
    },
    {
      "doubleSided": true,
      "emissiveFactor": [
        0,
        0,
        0
      ],
      "name": "material",
      "pbrMetallicRoughness": {
        "baseColorFactor": [
          0.92158200000000001,
          0.88658199999999998,
          0.37202499999999999,
          1
        ],
        "metallicFactor": 0,
        "roughnessFactor": 0.5
      }
    },
    {
      "doubleSided": true,
      "emissiveFactor": [
        0,
        0,
        0
      ],
      "name": "Pupil",
      "pbrMetallicRoughness": {
        "baseColorFactor": [
          0.871367,
          0.10702299999999999,
          0.048171899999999997,
          1
        ],
        "metallicFactor": 0,
        "roughnessFactor": 0.25
      }
    },
    {
      "doubleSided": true,
      "emissiveFactor": [
        0,
        0,
        0
      ],
      "name": "Antennae",
      "pbrMetallicRoughness": {
        "baseColorFactor": [
          0.00182113,
          0.15292600000000001,
          0.033104799999999997,
          1
        ],
        "metallicFactor": 0,
        "roughnessFactor": 1
      }
    }
  ],
  "meshes": [
    {
      "primitives": [
        {
          "attributes": {
            "NORMAL": 1,
            "POSITION": 0,
            "TEXCOORD_0": 2
          },
          "indices": 3,
          "material": 0,
          "mode": 4
        }
      ]
    },
    {
      "primitives": [
        {
          "attributes": {
            "NORMAL": 5,
            "POSITION": 4,
            "TEXCOORD_0": 6
          },
          "indices": 7,
          "material": 0,
          "mode": 4
        }
      ]
    },
    {
      "primitives": [
        {
          "attributes": {
            "NORMAL": 9,
            "POSITION": 8,
            "TEXCOORD_0": 10
          },
          "indices": 11,
          "material": 0,
          "mode": 4
        }
      ]
    },
    {
      "primitives": [
        {
          "attributes": {
            "NORMAL": 13,
            "POSITION": 12,
            "TEXCOORD_0": 14
          },
          "indices": 15,
          "material": 1,
          "mode": 4
        }
      ]
    },
    {
      "primitives": [
        {
          "attributes": {
            "NORMAL": 17,
            "POSITION": 16,
            "TEXCOORD_0": 18
          },
          "indices": 19,
          "material": 2,
          "mode": 4
        }
      ]
    },
    {
      "primitives": [
        {
          "attributes": {
            "NORMAL": 21,
            "POSITION": 20,
            "TEXCOORD_0": 22
          },
          "indices": 23,
          "material": 3,
          "mode": 4
        }
      ]
    },
    {
      "primitives": [
        {
          "attributes": {
            "NORMAL": 25,
            "POSITION": 24,
            "TEXCOORD_0": 26
          },
          "indices": 27,
          "material": 4,
          "mode": 4
        }
      ]
    },
    {
      "primitives": [
        {
          "attributes": {
            "NORMAL": 29,
            "POSITION": 28,
            "TEXCOORD_0": 30
          },
          "indices": 31,
          "material": 2,
          "mode": 4
        }
      ]
    },
    {
      "primitives": [
        {
          "attributes": {
            "NORMAL": 33,
            "POSITION": 32,
            "TEXCOORD_0": 34
          },
          "indices": 35,
          "material": 5,
          "mode": 4
        }
      ]
    },
    {
      "primitives": [
        {
          "attributes": {
            "NORMAL": 37,
            "POSITION": 36,
            "TEXCOORD_0": 38
          },
          "indices": 39,
          "material": 2,
          "mode": 4
        }
      ]
    }
  ],
  "nodes": [
    {
      "children": [
        1
      ],
      "name": "RootNode (gltf orientation matrix)",
      "rotation": [
        -0.70710678118654746,
        -0,
        -0,
        0.70710678118654757
      ]
    },
    {
      "children": [
        2
      ],
      "name": "RootNode (model correction matrix)"
    },
    {
      "children": [
        3
      ],
      "name": "root"
    },
    {
      "children": [
        4,
        6,
        8,
        10,
        13,
        16,
        18
      ],
      "matrix": [
        1,
        0,
        0,
        0,
        0,
        2.2204460492503131e-16,
        1,
        0,
        0,
        -1,
        2.2204460492503131e-16,
        0,
        0,
        0,
        0,
        1
      ],
      "name": "GLTF_SceneRootNode"
    },
    {
      "children": [
        5
      ],
      "matrix": [
        1,
        0,
        0,
        0,
        0,
        1,
        0,
        0,
        0,
        0,
        0.80000001192092896,
        0,
        0,
        0,
        0,
        1
      ],
      "name": "Sphere_1"
    },
    {
      "mesh": 0,
      "name": ""
    },
    {
      "children": [
        7
      ],
      "matrix": [
        0.19999998807907104,
        0,
        0,
        0,
        0,
        0.23999999463558197,
        0,
        0,
        0,
        0,
        0.19999998807907104,
        0,
        0,
        -3.0999999046325684,
        0,
        1
      ],
      "name": "Sphere.001_2"
    },
    {
      "mesh": 1,
      "name": ""
    },
    {
      "children": [
        9
      ],
      "matrix": [
        0.19999998807907104,
        0,
        0,
        0,
        0,
        0.19999998807907104,
        0,
        0,
        0,
        0,
        0.19999998807907104,
        0,
        0,
        -0.79999995231628418,
        0,
        1
      ],
      "name": "Sphere.002_3"
    },
    {
      "mesh": 2,
      "name": ""
    },
    {
      "children": [
        11,
        12
      ],
      "matrix": [
        1,
        0,
        0,
        0,
        0,
        8.4293694802006769e-08,
        0.99999999999999656,
        0,
        0,
        -1.2000000476837116,
        1.0115243778184471e-07,
        0,
        0,
        -0.19999998807907104,
        1,
        1
      ],
      "name": "Plane_4"
    },
    {
      "mesh": 3,
      "name": ""
    },
    {
      "mesh": 4,
      "name": ""
    },
    {
      "children": [
        14,
        15
      ],
      "matrix": [
        0.64800006151199341,
        0,
        0,
        0,
        0,
        5.4622319416773585e-08,
        0.64800006151199119,
        0,
        0,
        -0.64800006151199119,
        5.4622319416773585e-08,
        0,
        0,
        1.1000000238418579,
        0.5,
        1
      ],
      "name": "Sphere.003_5"
    },
    {
      "mesh": 5,
      "name": ""
    },
    {
      "mesh": 6,
      "name": ""
    },
    {
      "children": [
        17
      ],
      "matrix": [
        0.80000001192092896,
        0,
        0,
        0,
        0,
        6.7434956846464556e-08,
        0.80000001192092618,
        0,
        0,
        -0.48000001907348466,
        4.0460975112737884e-08,
        0,
        0,
        1.8999999761581421,
        0.89999997615814209,
        1
      ],
      "name": "Plane.001_6"
    },
    {
      "mesh": 7,
      "name": ""
    },
    {
      "children": [
        19,
        20
      ],
      "matrix": [
        1,
        0,
        0,
        0,
        0,
        1,
        0,
        0,
        0,
        0,
        1,
        0,
        0,
        3.5,
        0,
        1
      ],
      "name": "Cone_7"
    },
    {
      "mesh": 8,
      "name": ""
    },
    {
      "mesh": 9,
      "name": ""
    }
  ],
  "scene": 0,
  "scenes": [
    {
      "name": "OSG_Scene",
      "nodes": [
        0
      ]
    }
  ]
}

